<svg xmlns="http://www.w3.org/2000/svg" viewBox="0 0 910.91 243.48"><defs><style>.cls-1{fill:#f1b900;}</style></defs><title>VLearningAsset 2</title><g id="Layer_2" data-name="Layer 2"><g id="Layer_3" data-name="Layer 3"><path class="cls-1" d="M268.77,243.3l-94,.18L246.69,76.71h24.9L209.77,221.48l59-.43Zm87.26,0H287V76.71h68.44v22H311.85v48.64h37.47V169H311.85v52.27H356Zm103.44,0H434.78l-5-31.61H398.59l-5,31.61H369v-.43L401.25,76.5h26.18Zm-33.21-53-12.13-75.15-12.25,75.15Zm132.42,53h-26l-27.47-77.39v-15h24.48V98.11h-31.4V243.3h-24.9V76.71h66.1q15,0,15,15.33v60.57q0,10.53-7.14,13.62-3.82,1.61-16.17,1.6Zm99.63,0H636.49L596.57,138.45a62.55,62.55,0,0,1,1.6,12V243.3H573.9V76.71h21.82l39.92,102.72a62.45,62.45,0,0,1-1.6-12V76.71h24.27Zm45.35,0H678.75V76.71h24.91Zm104.85,0H786.68L746.77,138.45a63.19,63.19,0,0,1,1.59,12V243.3H724.1V76.71h21.82l39.91,102.72a63.09,63.09,0,0,1-1.59-12V76.71h24.27Zm102.4-15.22q0,15.22-15.23,15.22H843.31q-14.79,0-14.79-15.22V92q0-15.33,15.11-15.33h52q15.23,0,15.23,15.33v35.55h-25V98.11H853.43V221.9h32.46V175.28H867.37V154.1h43.54ZM215.5,13c-.19,2.69-4.6,13.87-8.56,24.54,2.29-8.49,5.82-19.25,5.64-22.12-8.2,4.29-14.65,11.28-19.21,21.21l.55-8.29Q177.38,40.41,183.3,68.27L175,48.64l-4.74,11c-3.75,9-2.49,17.62,6.15,26.18-4.74-.39-9.3-6.84-13.57-18.4-2.14,6.29-2.79,12.37-.37,18-1.46-3-3-5.63-5.1-6.74-.53,8.93.61,15.71,3.12,20.75.11,1.53-.4,1.52-1.75,1.29C154.11,96.52,151,89.46,148.6,81c-2.42,8.65-2.07,15.74.81,21.41-2.52-3.26-4.64-6.51-5.22-9.66a150.86,150.86,0,0,1-5,18.4c-2.27,4.68-2,14.71-1,26.42l-3.87-12.63-5.6,22.52,2,10.15-4.07-5.53c-4.34,7.47-7.09,14.85-7.41,22.1L63.72,51.51c-5.07-9.57-18.24-17.24-29.83-17.66L0,33.88,95.7,243.13h44.45l47.12-96.42-9.72,1,10.69-5.1c1.84-4.66,7.65-14.42,13.54-24.29a50.79,50.79,0,0,0,6.38-19,32.72,32.72,0,0,1-9,4.68c-3.46.85-6.52,3.41-9,6.25-.94-2.16,2.48-4.76,7.78-7.53,10.18-4.73,18.32-9.34,17-13.36a46.89,46.89,0,0,1-11.17,5.35c6.41-5.19,10.78-10.22,11.17-14.94l4-8.38-16.4,9.84c8.79-6.1,17.12-12.13,18.22-17.13,1.8-9.29,4.81-17.65,9.11-24.41a141.8,141.8,0,0,0-21.68,14.85L229.9,35.34l5.46-11.66-9.84,6.92,11.85-10.38C243.5,9.92,250.74,3,256.77,0,239.69,1.64,225.7,5.55,215.5,13ZM131.79,229.9H103.86L20.06,46.52H34.39c7.13,1,13,4.65,17.73,10.69l60.79,132.62c1.17,5.55,33.11,1.15,47.54-20.41Z"/></g></g></svg>