<svg id="Layer_1" data-name="Layer 1" xmlns="http://www.w3.org/2000/svg" xmlns:xlink="http://www.w3.org/1999/xlink" viewBox="0 0 641.96 598"><defs><style>.cls-1{fill:#e6e6e6;}.cls-2{fill:url(#linear-gradient);}.cls-3{fill:url(#linear-gradient-2);}.cls-4{fill:url(#linear-gradient-3);}.cls-5{fill:#ffcd01;}.cls-6{fill:#ccc;}.cls-7{fill:#2f2e41;}.cls-8{fill:url(#linear-gradient-4);}.cls-9{fill:url(#linear-gradient-5);}.cls-10{opacity:0.1;isolation:isolate;}.cls-11{fill:url(#linear-gradient-6);}.cls-12{fill:url(#linear-gradient-7);}.cls-13{fill:url(#linear-gradient-8);}.cls-14{fill:url(#linear-gradient-9);}.cls-15{fill:url(#linear-gradient-10);}</style><linearGradient id="linear-gradient" x1="329.33" y1="528.61" x2="357.09" y2="528.61" gradientUnits="userSpaceOnUse"><stop offset="0" stop-color="#00567c"/><stop offset="1" stop-color="#008494"/></linearGradient><linearGradient id="linear-gradient-2" x1="300.14" y1="528.61" x2="327.9" y2="528.61" xlink:href="#linear-gradient"/><linearGradient id="linear-gradient-3" x1="292.73" y1="466.25" x2="364.49" y2="466.25" xlink:href="#linear-gradient"/><linearGradient id="linear-gradient-4" x1="273.65" y1="209.34" x2="394.28" y2="209.34" xlink:href="#linear-gradient"/><linearGradient id="linear-gradient-5" x1="115.79" y1="338.86" x2="307.29" y2="338.86" xlink:href="#linear-gradient"/><linearGradient id="linear-gradient-6" x1="0" y1="229.18" x2="40.48" y2="229.18" xlink:href="#linear-gradient"/><linearGradient id="linear-gradient-7" x1="40.48" y1="229.18" x2="80.96" y2="229.18" xlink:href="#linear-gradient"/><linearGradient id="linear-gradient-8" x1="561" y1="399.18" x2="601.48" y2="399.18" xlink:href="#linear-gradient"/><linearGradient id="linear-gradient-9" x1="601.48" y1="399.18" x2="641.96" y2="399.18" xlink:href="#linear-gradient"/><linearGradient id="linear-gradient-10" x1="213.96" y1="597" x2="445.96" y2="597" xlink:href="#linear-gradient"/></defs><title>VLearningReadingManscreenexoprt</title><path class="cls-1" d="M328.62,591.66c-3.12,0-6.27,0-9.36-.15l.07-2.25c4.44.14,9,.18,13.44.12l0,2.25C331.41,591.65,330,591.66,328.62,591.66Zm17.71-.52-.13-2.25c4.45-.26,9-.63,13.4-1.1l.23,2.24c-4.47.47-9,.84-13.5,1.11Zm-40.6-.35c-4.49-.35-9-.8-13.48-1.35l.28-2.23c4.42.54,8.92,1,13.37,1.33Zm67.54-2.48-.34-2.22c4.42-.67,8.87-1.45,13.24-2.32l.44,2.21c-4.4.87-8.89,1.66-13.34,2.33Zm-94.42-.82c-4.43-.75-8.9-1.62-13.3-2.57l.48-2.2c4.36.95,8.8,1.81,13.2,2.55Zm121-4.46-.54-2.18c4.34-1.07,8.7-2.26,13-3.53l.64,2.16c-4.3,1.28-8.7,2.47-13.07,3.55Zm-147.44-1.29c-4.35-1.15-8.73-2.43-13-3.78l.68-2.14c4.25,1.34,8.59,2.6,12.91,3.75Zm173.4-6.41-.74-2.12c4.21-1.47,8.45-3.05,12.59-4.71l.84,2.09c-4.18,1.67-8.45,3.26-12.69,4.74Zm-199.26-1.76c-4.22-1.55-8.47-3.23-12.63-5l.88-2.07c4.12,1.73,8.34,3.4,12.53,4.94Zm224.38-8.29-.94-2c4-1.84,8.11-3.8,12.09-5.83l1,2c-4,2-8.1,4-12.17,5.87ZM201.52,563c-4.06-1.94-8.13-4-12.11-6.12l1.06-2c3.95,2.11,8,4.15,12,6.07ZM475,553l-1.12-2c3.88-2.21,7.75-4.54,11.51-6.91l1.2,1.9C482.79,548.4,478.88,550.75,475,553ZM177.6,550.26c-3.86-2.3-7.73-4.72-11.49-7.2l1.24-1.88c3.73,2.46,7.57,4.86,11.4,7.14Zm320.24-11.75-1.29-1.84c3.65-2.55,7.3-5.22,10.83-7.94l1.37,1.78C505.19,533.25,501.52,535.94,497.84,538.51ZM155,535.35c-3.63-2.64-7.26-5.4-10.78-8.22l1.4-1.75c3.5,2.79,7.1,5.53,10.7,8.14ZM519.29,522l-1.45-1.72c3.41-2.87,6.8-5.86,10.07-8.9l1.53,1.66c-3.3,3.05-6.72,6.07-10.15,9Zm-385.5-3.58c-3.39-3-6.75-6-10-9.16l1.56-1.62c3.22,3.09,6.55,6.15,9.91,9.09Zm405.38-14.81-1.6-1.58c3.14-3.18,6.24-6.47,9.23-9.78l1.67,1.51c-3,3.34-6.13,6.65-9.3,9.85Zm-424.93-3.95c-3.1-3.26-6.16-6.63-9.1-10l1.7-1.47c2.91,3.36,6,6.71,9,9.94ZM557.3,483.51l-1.73-1.43c2.83-3.45,5.62-7,8.3-10.58l1.8,1.34C563,476.45,560.16,480,557.3,483.51ZM96.5,479.24c-2.79-3.52-5.53-7.16-8.16-10.8l1.83-1.32c2.6,3.62,5.33,7.23,8.09,10.72Zm477-17.43-1.86-1.27c2.51-3.69,5-7.49,7.31-11.3l1.91,1.18C578.54,454.25,576.06,458.09,573.53,461.81ZM80.69,457.28c-2.45-3.76-4.85-7.63-7.13-11.5l1.94-1.14c2.26,3.84,4.64,7.68,7.08,11.4Zm507-18.58-2-1.08c2.16-3.91,4.25-7.93,6.23-11.93l2,1c-2,4-4.11,8.09-6.29,12ZM67,434c-2.09-4-4.13-8-6-12.09l2-1c1.9,4,3.92,8.07,6,12Zm532.78-19.59-2.06-.9c1.79-4.09,3.51-8.29,5.11-12.46l2.1.81c-1.61,4.2-3.35,8.43-5.15,12.55ZM55.43,409.53c-1.72-4.14-3.37-8.37-4.91-12.59l2.12-.77c1.52,4.18,3.16,8.39,4.87,12.49Zm554-20.49-2.14-.71c1.4-4.23,2.73-8.55,3.94-12.85l2.16.61c-1.21,4.33-2.55,8.69-4,13ZM46.19,384.11c-1.34-4.29-2.59-8.67-3.74-13l2.18-.57c1.13,4.32,2.38,8.67,3.71,12.92ZM616.8,363l-2.19-.51c1-4.34,1.93-8.76,2.73-13.16l2.22.41c-.82,4.43-1.75,8.89-2.76,13.26ZM39.32,357.91c-.94-4.39-1.79-8.87-2.52-13.3l2.22-.37c.73,4.4,1.57,8.84,2.5,13.2ZM621.7,336.34l-2.23-.31c.61-4.41,1.12-8.9,1.52-13.35l2.24.2c-.41,4.49-.92,9-1.53,13.46ZM34.89,331.2c-.53-4.45-1-9-1.3-13.48l2.25-.17c.32,4.46.75,9,1.28,13.38Zm589.26-21.83-2.25-.1c.2-4.46.3-9,.3-13.44h2.25c0,4.49-.1,9.05-.3,13.54ZM32.91,304.19c-.08-2.76-.12-5.57-.12-8.36,0-1.73,0-3.46.05-5.18l2.25,0c0,1.72-.05,3.43-.05,5.15,0,2.77,0,5.56.12,8.3Zm589.28-11.5c-.05-4.46-.2-9-.45-13.44l2.25-.12c.25,4.49.4,9,.45,13.54ZM35.62,277.25l-2.24-.14c.28-4.49.67-9,1.15-13.49l2.23.24c-.48,4.43-.86,8.93-1.14,13.39Zm585.07-11.4c-.45-4.43-1-8.92-1.66-13.33l2.23-.33c.65,4.45,1.22,9,1.67,13.44ZM38.52,250.54l-2.23-.35c.69-4.45,1.49-8.93,2.38-13.33l2.21.45C40,241.67,39.2,246.12,38.52,250.54Zm578.24-11.27c-.86-4.39-1.83-8.81-2.88-13.13l2.19-.53c1.06,4.36,2,8.81,2.9,13.23ZM43.84,224.2l-2.18-.55c1.09-4.36,2.3-8.75,3.6-13.06l2.15.65C46.13,215.51,44.93,219.87,43.84,224.2Zm566.56-11c-1.25-4.29-2.62-8.59-4.07-12.81l2.12-.73c1.46,4.25,2.85,8.59,4.11,12.91ZM51.59,198.42l-2.12-.74c1.49-4.26,3.11-8.53,4.79-12.7l2.09.84c-1.68,4.14-3.28,8.38-4.76,12.6Zm550.08-10.68c-1.65-4.14-3.4-8.29-5.23-12.35l2-.92c1.84,4.09,3.61,8.27,5.27,12.44Zm-540-14.29-2-.93c1.88-4.1,3.88-8.2,6-12.2l2,1C65.53,165.32,63.55,169.39,61.69,173.45Zm529-10.16c-2-4-4.15-7.95-6.35-11.83l2-1.1c2.21,3.9,4.36,7.91,6.39,11.91ZM74,149.54l-2-1.13c2.25-3.89,4.61-7.79,7-11.59L81,138c-2.4,3.77-4.75,7.64-7,11.51Zm503.41-9.61c-2.38-3.78-4.87-7.55-7.4-11.2l1.85-1.28c2.55,3.68,5.06,7.48,7.45,11.29ZM88.51,126.86l-1.84-1.3c2.6-3.67,5.31-7.34,8.07-10.89l1.77,1.38C93.78,119.57,91.09,123.21,88.51,126.86Zm473.63-9c-2.72-3.55-5.54-7.08-8.4-10.49l1.73-1.45c2.88,3.44,5.72,7,8.45,10.57ZM105,105.61l-1.72-1.46c2.91-3.42,6-6.82,9-10.11l1.64,1.53C110.89,98.84,107.88,102.22,105,105.61Zm439.88-8.33c-3-3.29-6.16-6.55-9.32-9.69l1.59-1.6c3.18,3.17,6.34,6.45,9.39,9.77ZM123.34,86l-1.58-1.61c3.22-3.15,6.55-6.26,9.9-9.25l1.49,1.68c-3.32,3-6.62,6-9.81,9.18Zm402.48-7.63c-3.31-3-6.73-6-10.17-8.8l1.44-1.74c3.46,2.86,6.9,5.85,10.24,8.88ZM143.38,68.06,142,66.32c3.48-2.84,7.07-5.63,10.69-8.31L154,59.82C150.4,62.48,146.83,65.25,143.38,68.06ZM505.1,61.19c-3.57-2.69-7.25-5.33-10.93-7.85l1.27-1.85c3.71,2.53,7.41,5.19,11,7.9ZM165,52.07,163.7,50.2c3.72-2.5,7.56-5,11.39-7.29l1.17,1.92C172.45,47.15,168.65,49.58,165,52.07ZM482.9,46c-3.81-2.35-7.71-4.64-11.61-6.81l1.1-2c3.93,2.19,7.86,4.5,11.69,6.87Zm-295-7.88-1.08-2c3.94-2.15,8-4.24,12-6.21l1,2c-4,1.95-8,4-11.91,6.17Zm271.5-5.21c-4-2-8.11-3.92-12.19-5.73l.91-2.06c4.11,1.82,8.25,3.76,12.28,5.77ZM212,26.33l-.89-2.06c4.12-1.79,8.33-3.5,12.52-5.09l.79,2.11c-4.15,1.57-8.33,3.27-12.42,5ZM434.76,22c-4.17-1.62-8.43-3.16-12.68-4.58l.72-2.13c4.28,1.43,8.57,3,12.77,4.61ZM237.08,16.8l-.7-2.13c4.27-1.4,8.63-2.72,13-3.92l.6,2.16c-4.29,1.19-8.62,2.5-12.86,3.89Zm172.17-3.34c-4.3-1.22-8.67-2.36-13-3.39l.51-2.19c4.38,1,8.79,2.18,13.11,3.42ZM263,9.62l-.5-2.2c4.38-1,8.85-1.91,13.27-2.71l.4,2.22c-4.39.79-8.82,1.69-13.17,2.69ZM383.09,7.29c-4.38-.82-8.84-1.55-13.26-2.17l.31-2.23c4.45.63,8.95,1.36,13.36,2.19ZM289.42,4.84l-.3-2.23c4.45-.59,9-1.09,13.46-1.48l.2,2.24c-4.45.39-8.94.88-13.36,1.47Zm67.06-1.29c-4.43-.41-8.94-.74-13.41-.95l.11-2.25c4.5.22,9,.54,13.51,1Zm-40.29-1L316.1.26C320.23.09,324.45,0,328.62,0h1V2.25h-1c-4.14,0-8.33.09-12.43.26Z"/><path class="cls-2" d="M329.33,590.12v-123a6.5,6.5,0,0,1,6.5-6.5h14.76a6.5,6.5,0,0,1,6.5,6.5v123a6.5,6.5,0,0,1-6.5,6.5H335.83A6.5,6.5,0,0,1,329.33,590.12Z"/><path class="cls-3" d="M300.14,590.12v-123a6.5,6.5,0,0,1,6.5-6.5H321.4a6.51,6.51,0,0,1,6.5,6.5v123a6.51,6.51,0,0,1-6.5,6.5H306.64A6.5,6.5,0,0,1,300.14,590.12Z"/><rect class="cls-4" x="292.73" y="426.49" width="71.76" height="79.51" rx="6"/><path class="cls-1" d="M228.15,233.23s-30.16,14-55.68,23.3c-15.84-35.75-38.65-34.42-38.65-34.42L120,231.64l2.5,14.28-.68,23.36-3.63,12.25,5.21.94,2.94.53.44-.4a30.34,30.34,0,0,0-.88,8.9l130.84-20.4S252.19,250,228.15,233.23Z"/><rect class="cls-5" x="180.68" y="369.54" width="135.01" height="26.76" rx="6" transform="translate(-178.99 222.48) rotate(-36.47)"/><rect class="cls-5" x="369.83" y="328.41" width="26.76" height="135.01" rx="6" transform="translate(-140.88 225.83) rotate(-27.95)"/><path class="cls-6" d="M394.63,381.05l-21.29,14.12c-3.25,1.73-7.15.75-8.7-2.18l-23.52-44.31c-1.55-2.92-.18-6.7,3.08-8.42l14.49-7.69c3.26-1.73,7.15-.76,8.71,2.17l30.31,37.89C399.26,375.55,397.89,379.33,394.63,381.05Z"/><path class="cls-6" d="M249.53,368.07l13.84,18.38a6,6,0,0,0,8.48.27l36.58-34.33a6,6,0,0,0,.27-8.48l-10.1-10.76a6,6,0,0,0-8.48-.27L249.8,359.59a6,6,0,0,0-.27,8.48Z"/><rect class="cls-6" x="289.08" y="331.06" width="79.06" height="154.48" rx="6"/><circle class="cls-5" cx="328.22" cy="268.24" r="53.52"/><path class="cls-7" d="M334.46,286.11c-3.31-.09-7.42-.21-10.59-2.52a8.14,8.14,0,0,1-3.2-6.07,5.47,5.47,0,0,1,1.86-4.5c1.66-1.39,4.07-1.73,6.68-1l-2.7-19.72,2-.28,3.17,23.19L330,274.5c-1.92-.88-4.55-1.33-6.19.05a3.52,3.52,0,0,0-1.15,2.9,6.15,6.15,0,0,0,2.38,4.52c2.46,1.8,5.75,2,9.47,2.14Z"/><rect class="cls-7" x="305.94" y="254.04" width="10.77" height="2"/><rect class="cls-7" x="339.94" y="254.04" width="10.77" height="2"/><path class="cls-8" d="M292.87,226.42c-8.68-1-15.4-9.3-16.13-17.73-.88-10,5-19.56,13-25.19,8.38-5.89,18.82-8.35,28.93-8.89A79.48,79.48,0,0,1,373,192.52c7.58,6.29,14.65,14.3,17.33,24,2.32,8.4.43,17.92-6.33,23.8a16,16,0,0,1-12.26,3.78c-5.24-.54-10.08-3.3-14.27-6.35-8.14-5.92-14.83-14.17-24.76-17.27-7.28-2.27-16.72-.27-21.17,6.31a12,12,0,0,0-1.91,5,1.56,1.56,0,0,0,1.05,1.85,1.51,1.51,0,0,0,1.84-1c1.17-8.29,11.36-11.38,18.51-9.49,10.43,2.76,17.43,12.06,26,18,4.5,3.11,9.62,5.59,15.13,6a18.82,18.82,0,0,0,13.21-4.06c7.31-5.77,10.1-15.7,8.48-24.64C392,208.07,385,199.2,377.35,192.33A82.47,82.47,0,0,0,321,171.52c-10.57.24-21.61,2.43-30.72,8-8.83,5.42-15.66,14.49-16.55,25-.79,9.27,4.19,19,12.73,23.05a20.11,20.11,0,0,0,6.4,1.8c1.91.22,1.9-2.78,0-3Z"/><path class="cls-6" d="M126.22,281.19l6.35-2c.68-1.31-.57-.47,0-1.74,16.06-34.27,1.22-55.3,1.22-55.3L122.33,230c0-.06,0-.13-.08-.2s-2-4.53-5.21-1.13c0,0,10,24.26-1.14,54.42l12.93,5.9,5-5.9.11-.56-8.93-.82Z"/><path class="cls-9" d="M307.29,408.51c-51-11.34-98.53,12.13-98.53,12.13l-.13-.11-18.92-16.89L115.79,283l18,.11c50.11-29.93,120.63-25.85,120.63-25.85C284.84,291.73,307.29,408.51,307.29,408.51Z"/><path class="cls-10" d="M208.63,420.53l-18.92-16.89L115.79,283l18,.11S205.67,378,208.63,420.53Z"/><ellipse class="cls-5" cx="211.48" cy="308.62" rx="29.25" ry="18.59" transform="translate(-81.2 75.58) rotate(-17.05)"/><path class="cls-6" d="M59,224.51c-4.07,15.06-18,24.38-18,24.38s-7.34-15.09-3.27-30.14,18-24.39,18-24.39S63.09,209.45,59,224.51Z"/><path class="cls-6" d="M22,224.51c4.07,15.06,18,24.38,18,24.38s7.35-15.09,3.27-30.14-18-24.39-18-24.39S17.88,209.45,22,224.51Z"/><path class="cls-11" d="M27.94,221.27c11.18,10.88,12.54,27.61,12.54,27.61s-16.76-.91-27.94-11.8S0,209.47,0,209.47,16.76,210.39,27.94,221.27Z"/><path class="cls-12" d="M53,221.27c-11.18,10.88-12.55,27.61-12.55,27.61s16.76-.91,27.94-11.8S81,209.47,81,209.47,64.2,210.39,53,221.27Z"/><path class="cls-6" d="M620,394.51c-4.07,15.06-18,24.38-18,24.38s-7.34-15.09-3.27-30.14,18-24.39,18-24.39S624.09,379.45,620,394.51Z"/><path class="cls-6" d="M583,394.51c4.07,15.06,18,24.38,18,24.38s7.35-15.09,3.27-30.14-18-24.39-18-24.39S578.88,379.45,583,394.51Z"/><path class="cls-13" d="M588.94,391.27c11.18,10.88,12.54,27.61,12.54,27.61s-16.76-.91-27.94-11.8S561,379.47,561,379.47,577.76,380.39,588.94,391.27Z"/><path class="cls-14" d="M614,391.27c-11.18,10.88-12.55,27.61-12.55,27.61s16.76-.91,27.94-11.8S642,379.47,642,379.47,625.2,380.39,614,391.27Z"/><rect class="cls-15" x="213.96" y="596" width="232" height="2"/></svg>