<svg xmlns="http://www.w3.org/2000/svg" xmlns:xlink="http://www.w3.org/1999/xlink" width="359.048" height="356.012" viewBox="0 0 359.048 356.012"><defs><linearGradient id="a" y1="0.5" x2="1" y2="0.5" gradientUnits="objectBoundingBox"><stop offset="0" stop-color="#00567c"/><stop offset="1" stop-color="#008494"/></linearGradient><linearGradient id="b" x1="0" y1="0.5" x2="1" y2="0.5" xlink:href="#a"/><linearGradient id="c" x1="0" y1="0.5" x2="1" y2="0.5" xlink:href="#a"/><linearGradient id="d" x1="0" y1="0.5" x2="1" y2="0.5" xlink:href="#a"/></defs><g transform="translate(-17.62 -3.554)"><path d="M373.581,181.559a177.611,177.611,0,0,1-10.186,59.47.083.083,0,0,0,0,.036c-.03.09-.06.168-.1.258h0q-2.157,6.076-4.752,11.954a178.056,178.056,0,0,1-15.669,28.252q-2.211,3.254-4.572,6.411-2.6,3.487-5.393,6.837-2.553,3.092-5.237,6.058-3.188,3.541-6.591,6.9a177.367,177.367,0,0,1-16.825,14.8c-1.037.809-2.091,1.6-3.152,2.4q-3.709,2.738-7.568,5.285a174.758,174.758,0,0,1-17.58,10.186c-1.043.533-2.1,1.061-3.152,1.564q-6.13,2.966-12.517,5.453c-1.2.479-2.427.941-3.661,1.384l-.6.228a177.009,177.009,0,0,1-45.269,9.887c-1.073.1-2.151.174-3.224.246s-2.289.144-3.433.192c-.9.048-1.8.078-2.714.108h-.557q-1.834.06-3.679.072h-2.3q-5.321,0-10.564-.348h-.216c-1.252-.084-2.5-.174-3.739-.282q-6.645-.557-13.14-1.606c-.995-.156-1.989-.33-3-.509q-6.459-1.138-12.757-2.75-1.869-.473-3.721-.995a177.617,177.617,0,0,1-20.918-7.262q-5.86-2.463-11.51-5.321-2.541-1.288-5.039-2.654l-1.33-.725q-4.907-2.738-9.587-5.776-3.859-2.481-7.568-5.159l-.911-.653q-2.84-2.079-5.6-4.254-5.992-4.746-11.564-9.983-3.847-3.6-7.472-7.46A178.126,178.126,0,0,1,32.5,252.917q-2.624-5.992-4.823-12.206a.258.258,0,0,1,0-.03,178.016,178.016,0,1,1,345.906-59.122Z" transform="translate(0 0)" fill="#f2f2f2"/><path d="M348.813,21.9V246.841H203.36V16.458A178.5,178.5,0,0,1,348.813,21.9Z" transform="translate(-74.446 0)" fill="#fff"/><path d="M224.737,194.475c3.943-6.525,8.622-13.494,15.944-15.627,8.479-2.469,17.191,2.439,24.567,7.274a715.307,715.307,0,0,1,63.736,46.964v.252l-47.564-3.284c-11.457-.785-23.309-1.684-33.429-7.106-3.841-2.055-7.586-4.794-11.936-4.991-5.393-.24-10.126,3.535-13.829,7.484-21.924,23.338-28.27,59.038-52.867,79.542a780.777,780.777,0,0,1,55.377-110.509Z" transform="translate(-60.819 -69.995)" fill="#f2f2f2"/><path d="M341,28.086c-.365-.246-.737-.479-1.108-.719a160.848,160.848,0,0,0-33.956-16.46l-2.762,38.15H285.645V5.317c-1.1-.228-2.217-.443-3.326-.647V49.01H261.485a43.244,43.244,0,0,1-43.232-43.2h0q-1.672.36-3.331.773V49.058H197.947l-2.636-36.4a161.183,161.183,0,0,0-34.645,18.407l-.557.383c-.935.653-1.852,1.324-2.768,2V245.808h50l-.881-12.241L201.6,99.54h97.92l-4.859,134.015-.9,12.253h49.457V29.554Q342.124,28.835,341,28.086ZM214.91,88.455H200.793l-2.606-36.065H214.91Zm67.409,0H258.6v-.713a2.612,2.612,0,0,0-2.6-2.583H245.679a2.612,2.612,0,0,0-2.612,2.606h0v.713H218.254V52.389h64.065Zm3.326,0V52.389h17.287l-2.589,36.065Z" transform="translate(-56.001 -0.447)" fill="url(#a)"/><path d="M370.112,399.648a.066.066,0,0,0,0,.036c-.03.084-.06.168-.1.258h0q-2.157,6.076-4.752,11.948l-326.091-.354q-2.624-5.992-4.823-12.206v-.03Z" transform="translate(-6.706 -158.619)" fill="url(#b)"/><rect width="57.079" height="7.61" transform="translate(184.464 242.419)" fill="#fff"/><path d="M152.57,493.271c.2-1.8.479-3.6.839-5.333a61.836,61.836,0,0,1,12.236-26.179c3.487.2,6.543-.336,6.837-7.094.054-1.2.947-2.247,1.138-3.427-.33.042-.671.072-1,.09h-.354a1.9,1.9,0,0,1-1.983-1.8,1.858,1.858,0,0,1,.425-1.282l.431-.533c.216-.276.437-.539.659-.809l.072-.084c.246-.312.5-.6.749-.929a5.494,5.494,0,0,0-1.8-1.744c-2.517-1.474-5.992-.449-7.789,1.8a9.99,9.99,0,0,0-1.534,8.311,22.027,22.027,0,0,0,3.056,6.813c-.138.174-.282.342-.413.521a62.165,62.165,0,0,0-6.489,10.282c.515-4.027-5.788-18.575-8.233-21.655a5.3,5.3,0,0,0-9.449,2.606,1.243,1.243,0,0,1,0,.138c.366.2.719.419,1.067.647a2.6,2.6,0,0,1-1.049,4.734h-.054c-4.847,6.927,10.7,24.938,14.59,20.9a61.237,61.237,0,0,0-2.343,8.431,63.105,63.105,0,0,0-1.079,7.646,59.92,59.92,0,0,0,.048,9.725.407.407,0,0,1,0-.114c-.869-7.047-15.7-17.52-20.025-16.651-2.5.5-4.955.389-4.572,2.906v.126a15.826,15.826,0,0,1,1.953.941c.366.2.719.425,1.067.653a2.6,2.6,0,0,1-.659,4.644q2.75,2.175,5.6,4.254l.9.653q3.709,2.678,7.574,5.159,4.7,3.032,9.587,5.776l1.348.743a60.793,60.793,0,0,1-1.714-14.3,58.719,58.719,0,0,1,.36-6.567Zm2.313-15.112Zm-3.373,30.409-.132-.294v-.827c.054.378.1.755.15,1.132Zm19.42.6c.048-.2.084-.33.132-.527l-.048-.12c-1.408-3.355-8.844,3.4-12.056,8.3q5.644,2.846,11.51,5.321l.8-.989.066-.084c.6-.707,1.156-1.414,1.726-2.121v-.413a25.389,25.389,0,0,0-.749-6.046,1.917,1.917,0,0,1-1.39-3.319Z" transform="translate(-43.646 -176.318)" fill="#fff"/><path d="M350.736,395.831a8.431,8.431,0,0,0,11.732-2.151,8.339,8.339,0,0,0,.731-1.294l29.852,2.792-7.328-13.751-27.221-.539a8.479,8.479,0,0,0-7.789,14.944Z" transform="translate(-132.004 -151.009)" fill="#ffb6b6"/><path d="M403.77,365.7l41.3,4.632.144-.18c.27-.348,27.3-34.945,31.841-43.184a24.89,24.89,0,0,0,2.882-16.3v-.138l-.108-.09a12.631,12.631,0,0,0-15.8-.348A89.531,89.531,0,0,0,438.2,342l-3.445,7.136-30.984,3.056Z" transform="translate(-154.773 -121.817)" fill="#ffcd01"/><path d="M334.032,562.27,326.075,580.8c-1.144.078-2.283.144-3.427.192q-1.354.072-2.714.108l-.312.1-.252-.078q-1.834.054-3.679.072h-2.3l.527-1.8.6-2.139,2.469-8.49L320.55,556.5l5.3,2.277Z" transform="translate(-118.548 -221.626)" fill="#ffb6b6"/><path d="M432.375,563.382q-6.13,2.954-12.511,5.447l-4.164-7,13.41-5.89Z" transform="translate(-159.554 -221.402)" fill="#ffb6b6"/><path d="M485.7,515.28v14.74q-3.709,2.732-7.568,5.285V515.28Z" transform="translate(-184.577 -205.105)" fill="#cacaca"/><path d="M492.676,499.7q-3.188,3.535-6.591,6.9a178.889,178.889,0,0,1-16.855,14.794H435.5a6.292,6.292,0,0,1-4.728-2.14h0a6.214,6.214,0,0,1-1.42-2.786h0a6.421,6.421,0,0,1-.144-1.354V506a6.309,6.309,0,0,1,6.3-6.3Z" transform="translate(-164.969 -198.86)" fill="#3f3d56"/><path d="M460.288,434.079l-3.655,15.669a32.526,32.526,0,0,1,.354,6.867q-2.6,3.493-5.393,6.837-2.552,3.092-5.237,6.064-3.188,3.535-6.591,6.9a69.8,69.8,0,0,1-20.019,2.642c-2.493,0-5.027-.042-7.568-.18a206.851,206.851,0,0,1-29.264-3.913c-2.259-.449-4.38-.9-6.333-1.348-3.7-.833-6.795-1.612-9.036-2.205-2.523-.659-3.961-1.085-3.961-1.085L354,486.406,345.279,501l-11.229,14.333c-1.079.1-2.151.18-3.23.246s-2.283.15-3.427.2c-.9.048-1.8.078-2.714.1l-.312.1-.252-.084-4.074-1.294-1.378-.437-4.943-1.576s1.108-3.475,3.038-9.269c.713-2.127,5.74-17.85,11.007-31.583,1.558-4.074,3.176-8.209,4.835-12.319,1.36-3.379,2.75-6.747,4.152-10.066,2.439-5.752,14.231-8.856,28.108-10.486.707-.078,1.42-.162,2.133-.234,7.07-.749,14.578-1.132,21.571-1.306,3.517-.09,6.909-.126,10.06-.132h3c2.6,0,4.991.048,7.1.09l1.2.03h.773c4.608.12,7.43.264,7.43.264l1.1-8.592.222-1.732.21-1.654h0l.03-.21h.174l3.086-.036,25.585-.5,10.9-.461Z" transform="translate(-118.68 -168.675)" fill="url(#c)"/><path d="M411.524,527.022c-1.049.533-2.1,1.061-3.158,1.564q-6.13,3-12.517,5.453c-1.2.479-2.427.935-3.661,1.384-.132-.192-.276-.383-.413-.6-5.866-8.053-9.521-13.182-17.071-25.01-3.158-4.949-6.333-10.108-9.413-15.375l22.314-10.42,2.5-1.168,7.19,14.171,6.417,12.637,1.432,2.816Z" transform="translate(-139.35 -192.106)" fill="url(#d)"/><circle cx="20.558" cy="20.558" r="20.558" transform="translate(287.813 123.132)" fill="#ffb6b6"/><path d="M527.452,316.926c-.174-16.981.33-12.062-1.019-17.91-3.6-15.723-18.575-18.575-21.211-18.94a5.77,5.77,0,0,0-7.43-3.373c-.126.048-.252.1-.371.156l-5,2.594c-4.847,2.217-1.905,5.393-3.6,10.486l-1.762,5.393-14.41,39.84,2.912,15.16h0l1.965,10.216,5.83,6.639-.108-1.061-.132.2h0l-.336.5,1.39.761,3.463,1.917c.27.15.539.3.8.455h0l.5.276c4.194,2.361-11.385,6.657-7.927,8.67l1.432.821c15.986,9.353,28.761,20.972,32.86,24.375q2.762-3.344,5.393-6.837,2.367-3.146,4.572-6.411c.258-1.7.431-3.4.6-5.063.2-2.007-.851-20.57-.5-22.613a3.767,3.767,0,0,0-1.025-2.594c-.581-.833-1.043-1.5-.935-2.187a5.271,5.271,0,0,1,1.642-2.223,5.506,5.506,0,0,0,1.8-2.559c.336-2.487-1.055-4.979-.791-7.484q.647-6.1.995-12.253Q527.536,325.4,527.452,316.926Z" transform="translate(-182.381 -109.332)" fill="#ffcd01"/><path d="M368.981,408.169a8.437,8.437,0,0,1,11.93-.312,8.282,8.282,0,0,1,.983,1.114l28.629-8.892-4.332,14.98-26.526,6.13a8.479,8.479,0,0,1-10.684-13.02Z" transform="translate(-139.877 -158.931)" fill="#ffb6b6"/><path d="M428.5,376.674l53.142-10.953-13.781,3.415c.156-.413,15.657-41.488,17.538-50.7a24.915,24.915,0,0,0-2.1-16.424l-.072-.12-.126-.06a12.649,12.649,0,0,0-15.19,4.374,89.514,89.514,0,0,0-15.141,38.162l-1.144,7.789-18.737,5.6Z" transform="translate(-164.685 -119.162)" fill="#ffcd01"/><path d="M261.125,382.091a2.714,2.714,0,0,0,2.612,1.833l11.2-.288a2.69,2.69,0,0,0,2.529-1.971l1.582-16.951a4.08,4.08,0,1,0,1.588-7.789,3.842,3.842,0,0,0-.737.072,2.78,2.78,0,0,0-2.061-.887l-17.227.443a2.5,2.5,0,0,0-.425.054,2.69,2.69,0,0,0-2.151,3.14,3.394,3.394,0,0,0,.09.354Zm18.251-18.527,1.133-4.039a2.8,2.8,0,0,0,0-1.426h.156a2.924,2.924,0,0,1,.138,5.842,2.792,2.792,0,0,1-1.426-.378Z" transform="translate(-96.344 -141.308)" fill="#2f2e41"/><path d="M261.66,356.6c.366,2.1,4.494,3.6,9.455,3.32,4.566-.21,8.3-1.8,8.988-3.715a2.691,2.691,0,0,0-.785-.1l-17.227.443A2.5,2.5,0,0,0,261.66,356.6Z" transform="translate(-97.814 -141.303)" fill="#3f3d56"/><path d="M136.61,330.158V366.4a1.744,1.744,0,0,0,1.744,1.744h53.7a1.744,1.744,0,0,0,1.738-1.744V330.158a1.738,1.738,0,0,0-1.738-1.738h-53.7A1.744,1.744,0,0,0,136.61,330.158Z" transform="translate(-47.692 -130.209)" fill="#3f3d56"/><path d="M138.71,331.455v35.352a.941.941,0,0,0,.935.935h52.8a.941.941,0,0,0,.935-.935V331.455a.935.935,0,0,0-.935-.935h-52.8A.935.935,0,0,0,138.71,331.455Z" transform="translate(-48.534 -131.051)" fill="#ffcd01"/><path d="M134.6,399.606a1.043,1.043,0,0,0,.821.4h57.522A1.048,1.048,0,0,0,194,398.941a1.309,1.309,0,0,0,0-.216l-.893-4.236a1.078,1.078,0,0,0-.659-.773,1.138,1.138,0,0,0-.378-.066H136.342a1.126,1.126,0,0,0-.372.066,1.061,1.061,0,0,0-.659.773l-.893,4.236a1.037,1.037,0,0,0,.18.881Z" transform="translate(-46.802 -156.354)" fill="#2f2e41"/><rect width="1.774" height="1.061" rx="0.34" transform="translate(143.042 238.057)" fill="#3f3d56"/><rect width="1.774" height="1.061" rx="0.34" transform="translate(139.501 238.057)" fill="#3f3d56"/><rect width="1.774" height="1.061" rx="0.34" transform="translate(135.96 238.057)" fill="#3f3d56"/><rect width="1.774" height="1.061" rx="0.34" transform="translate(132.419 238.057)" fill="#3f3d56"/><rect width="1.774" height="1.061" rx="0.34" transform="translate(128.878 238.057)" fill="#3f3d56"/><rect width="1.774" height="1.061" rx="0.34" transform="translate(125.336 238.057)" fill="#3f3d56"/><rect width="1.774" height="1.061" rx="0.34" transform="translate(121.795 238.057)" fill="#3f3d56"/><rect width="1.774" height="1.061" rx="0.34" transform="translate(118.254 238.057)" fill="#3f3d56"/><rect width="1.774" height="1.061" rx="0.34" transform="translate(114.707 238.057)" fill="#3f3d56"/><rect width="1.774" height="1.061" rx="0.34" transform="translate(111.165 238.057)" fill="#3f3d56"/><rect width="1.774" height="1.061" rx="0.34" transform="translate(107.624 238.057)" fill="#3f3d56"/><rect width="1.774" height="1.061" rx="0.34" transform="translate(104.083 238.057)" fill="#3f3d56"/><rect width="1.774" height="1.061" rx="0.34" transform="translate(100.542 238.057)" fill="#3f3d56"/><rect width="1.774" height="1.061" rx="0.34" transform="translate(97.001 238.057)" fill="#3f3d56"/><rect width="1.774" height="1.061" rx="0.34" transform="translate(93.459 238.057)" fill="#3f3d56"/><rect width="1.774" height="1.061" rx="0.34" transform="translate(89.918 238.057)" fill="#3f3d56"/><rect width="1.774" height="1.061" rx="0.34" transform="translate(143.084 239.83)" fill="#3f3d56"/><rect width="1.774" height="1.061" rx="0.34" transform="translate(139.543 239.83)" fill="#3f3d56"/><rect width="1.774" height="1.061" rx="0.34" transform="translate(136.002 239.83)" fill="#3f3d56"/><rect width="1.774" height="1.061" rx="0.34" transform="translate(132.461 239.83)" fill="#3f3d56"/><rect width="1.774" height="1.061" rx="0.34" transform="translate(128.919 239.83)" fill="#3f3d56"/><rect width="1.774" height="1.061" rx="0.34" transform="translate(125.378 239.83)" fill="#3f3d56"/><rect width="1.774" height="1.061" rx="0.34" transform="translate(121.837 239.83)" fill="#3f3d56"/><rect width="1.774" height="1.061" rx="0.34" transform="translate(118.296 239.83)" fill="#3f3d56"/><rect width="1.774" height="1.061" rx="0.34" transform="translate(114.749 239.83)" fill="#3f3d56"/><rect width="1.774" height="1.061" rx="0.34" transform="translate(111.207 239.83)" fill="#3f3d56"/><rect width="1.774" height="1.061" rx="0.34" transform="translate(107.666 239.83)" fill="#3f3d56"/><rect width="1.774" height="1.061" rx="0.34" transform="translate(104.125 239.83)" fill="#3f3d56"/><rect width="1.774" height="1.061" rx="0.34" transform="translate(100.584 239.83)" fill="#3f3d56"/><rect width="1.774" height="1.061" rx="0.34" transform="translate(97.043 239.83)" fill="#3f3d56"/><rect width="1.774" height="1.061" rx="0.34" transform="translate(93.501 239.83)" fill="#3f3d56"/><rect width="1.774" height="1.061" rx="0.34" transform="translate(89.96 239.83)" fill="#3f3d56"/><rect width="14.165" height="1.061" rx="0.34" transform="translate(113.688 241.951)" fill="#3f3d56"/><path d="M349.629,386.118,373.662,365.1c1.144-1-1.037,1.977-.036,3.122s4.794,0,3.655,1.019l-24.034,21.008-6.088,1.39Z" transform="translate(-132.083 -144.832)" fill="#3f3d56"/><path d="M349.641,399.969l.6-.509a6.592,6.592,0,0,1,2.043,1.582,6.729,6.729,0,0,1,1.438,2.678l-.443.383-4.853,1.108-1.234.282.515-1.156Z" transform="translate(-132.095 -158.683)" fill="#ccc"/><path d="M347.655,407.6a1.246,1.246,0,0,1,.719.875l-1.234.282Z" transform="translate(-132.075 -161.946)" fill="#3f3d56"/><path d="M552.571,248.278a17.82,17.82,0,0,1-9.8,6.9,20.42,20.42,0,0,1-4.877.827,18.455,18.455,0,0,0-1.45-5.393,15.159,15.159,0,0,1-.755,5.393,18.048,18.048,0,0,1-7.13-1.911,15.623,15.623,0,0,1-8.389-11.277c-.869-5.626,1.678-11.145,2.6-16.777s-.809-12.727-6.31-14.207c-4.194-1.12-3.715-.635-7.19,1.947,3.6,5.351-9.749,24.962-15.219,23.255-3.092-.965-5.075-3.8-5.71-3.8-4.3,7.406,3.793,19.887-4.368,22.482l.677-.671c4.925-6.064-5.393-18.886-.443-24.944,1.372-1.7,2.834-3.7,2.427-5.848-.383-2.037-3.6-3.116-4.566-1.444a7.687,7.687,0,0,0-4.973-10.108c-3.7-.893-3.637.2-7.346.683a18.522,18.522,0,0,0-1.348-4.656,15.13,15.13,0,0,1-.557,4.746,5.992,5.992,0,0,1-3.6-1.306c-3.026-2.439-2.4-7.562.288-10.354s6.729-3.8,10.564-4.458c1.115-7.789,22.536-8.568,25.37-.815,1.2-5.788,8.461-8.8,14.1-7s9.545,7.058,11.606,12.583,2.636,11.51,3.9,17.287,3.415,11.654,7.831,15.579,11.606,5.237,16.256,1.582A13.34,13.34,0,0,1,552.571,248.278Z" transform="translate(-178.206 -74.334)" fill="#2f2e41"/></g></svg>